<svg xmlns="http://www.w3.org/2000/svg" width="74" height="97" fill="none">
    <path fill="#4f301e" fill-rule="evenodd"
        d="M33.074.0945929C31.214.306593 27.893.931591 27.232 1.19459c-.321.127-.884.305-1.25.395-.815.199-2.05.571-2.5.753l-3.872 1.768-4.141 2.415c-.312.189-.742.508-.955.708s-.449.364-.525.364-.403.244-.726.542L9.30305 11.9306c-.949 1.025-1.78401 2.063-2.33801 2.905l-1.27199 1.916c-.342.511-.623 1.011-.625 1.112s-.153.318-.336.484-.33401.364-.33401.44-.4.983-.89 2.016c-1.351 2.85-2.04 4.775-2.431 6.794l-.877003 4.167c-.129.583-.20199695 2.371-.19999695 4.916l.0039978 4 .68100015 3.25c.776002 3.698 1.613012 6.408 2.859012 9.249.883 2.015 3.86299 7.871 4.63899 9.118l1.29901 2.123c.82305 1.3778 1.71075 2.7159 2.65995 4.01.501.688 1.113 1.588 1.36 2 .2895.4744.6116.9282.964 1.358.451.531 1.169 1.491 2.349 3.138.183.256.783 1.01 1.333 1.676l2.048 2.55c2.27 2.9 10.411 11.559 15.739 16.739l.731.711 2.658-2.644c4.038-4.017 7.139-7.208 7.324-7.537.092-.162.935-1.094 1.873-2.071s1.987-2.127 2.329-2.556.886-1.089 1.21-1.466c2.297-2.679 4.505-5.367 4.505-5.485 0-.053.4-.599.889-1.213s.988-1.304 1.107-1.533.489-.723.819-1.097.808-1.049 1.06-1.5c.3153-.5433.6622-1.0675 1.039-1.57.319-.412.725-1.016.903-1.341.356-.653 1.656-2.671 2.142-3.325.555-.746 1.562-2.572 3.172-5.75.418-.825.822-1.525.898-1.556s.138-.18.138-.333.327-.953.728-1.778.898-2.025 1.106-2.667.476-1.391.596-1.666c.797-1.825.983-2.562 1.707-6.75.615-3.56.739-6.372.429-9.687-.249-2.65-.377-3.287-1.409-6.98-.524-1.877-1.492-4.46-1.752-4.676-.126-.105-.278-.447-.336-.759s-.174-.61-.256-.661-.407-.643-.723-1.316-.653-1.273-.75-1.334-.325-.398-.505-.75-.61-.979-.956-1.392-1.022-1.264-1.502-1.89c-1.974-2.575-5.042-5.38601-7.961-7.29301l-1.416-.928c-.229-.151-.979-.559-1.667-.905s-1.363-.726-1.5-.842-.55-.306-.917-.421-.741-.263-.833-.328-.954-.362-1.917-.659-1.937-.617-2.166-.71-.755-.233-1.167-.312997L42.232.23859c-.971-.2239999-7.548-.3279971-9.158-.1439971M42.139 1.61559c2.724.756 2.73 4.46.009 5.939l-.5.272.667.149c2.387.533 6.015 1.85 7.833 2.84401 1.43.781 3.699 2.32 4.572 3.1.314.281.627.511.696.511.317 0 4.141 4.366 4.976 5.68l1.134 1.75c.463.698 1.049 1.84 2.304 4.487 1.713 3.616 2.45 12.7 1.296 15.979-.125.356-.229.843-.23 1.084-.002.471-.587 2.467-.809 2.759-.074.098-.45.928-.836 1.845-1.375 3.265-1.285 3.308-1.415-.686-.187-5.778-1.464-7.685-5.267-7.867l-1.421-.068v-12.879l-.449-.852c-1.201-2.276-2.755-2.954-6.62-2.889-3.3.055-5.514.011-5.514-.109 0-.052.265-.417.588-.812 3.439-4.197.994-11.052-3.915-10.975-1.552.024-1.486.072-1.323-.96101.233-1.473 2.139-4.058 3.138-4.258.884-.177 1.294-1.344.72-2.049l-.291-.359-1.007.489c-2.195 1.065-4.22 4.23-4.239 6.62401l-.004.515-1.751.011c-3.408.021-5.749 2.619-5.749 6.38 0 1.615 1.299 4.754 2.094 5.059.807.31-.17.413-4.386.464l-4.625.055-.893.495c-2.468 1.366-2.69 2.192-2.69 9.975v6.066l-1.42.089c-2.295.143-4.214 1.392-4.759 3.097-.107.336-.261.683-.341.77s-.147 1.797-.147 3.801c0 2.44-.056 3.609-.17 3.538-.244-.151-1.055-1.812-1.50296-3.081-.211-.596-.438-1.158-.504-1.25-.132-.181-.946-3.092-1.166-4.167-.4-1.953-.822-8.502-.505-7.833.118.249.16101.055.17001-.766.022-2.083 1.80899-8.651 2.35395-8.651.062 0 .156-.259.207-.576.089-.548 1.326-2.827 1.64-3.021.082-.051.254-.344.383-.653.457-1.093 5.25-6.416 5.777-6.416.078 0 .536-.375 1.016-.834s.964-.833 1.075-.833.423-.187.696-.417.604-.416.737-.416.377-.15.543-.334.367-.333.448-.333.811-.331 1.624-.735c2.675-1.33201 7.676-2.76501 9.646-2.76501.516 0 .699-.067.699-.255 0-.466 1.352-2.65 2.14-3.456 1.968-2.014 3.623-2.728 5.267-2.271m-.907 3.713c0 .035-.188.099-.417.143s-.417.015-.417-.064.188-.143.417-.143.417.028.417.064m-.57 7.62101c2.202.666 3.084 3.85 1.827 6.595-.223.488-.361.886-.307.886s-.094.178-.328.396c-.605.56-2.144 1.53-2.336 1.472-.089-.026-.283.057-.432.185-1.556 1.341-6.558.063-7.973-2.037-1.604-2.379-.539-7.13 1.613-7.195.232-.007.572-.047.756-.089s1.345-.109 2.583-.151 2.475-.144 2.75-.227c.507-.152.92-.115 1.847.165m-7.448.564c-.239.13-.568.446-.731.702-.277.435-.257.429.296-.096.496-.47.69-.55 1.189-.492.414.048.597.003.597-.147 0-.287-.798-.268-1.351.033m18.002 12.295c1.102.566 1.094.514 1.146 7.384l.048 6.238-3.381.007c-11.942.026-27.8799-.034-27.9499-.104-.225-.225-.0251-11.898.2119-12.354.265-.509.881-1.121 1.274-1.264.568-.208 28.241-.118 28.651.093m6.516 16.709c1.263.731 1.333 1.109 1.333 7.224v5.407l-.875.933c-6.123 6.525-12.854 9.544-21.273 9.542-8.061-.003-14.805-2.79-20.622-8.522-2.043-2.014-1.897-1.415-1.897-7.74 0-5.83.073-6.172 1.459-6.872l.709-.358 20.291.025c20.042.024 20.299.028 20.875.361m-54.17895 9.798c.007.074-.06301.089-.15501.032s-.161-.267-.155-.468c.012-.363.27301.004.31001.436"
        clip-rule="evenodd" />
    <path fill="#ad232b" fill-rule="evenodd"
        d="M40.3985 5.40765c0 .079.188.108.417.064s.417-.108.417-.143-.188-.064-.417-.064-.417.064-.417.143m-1.583 7.37695c-.275.083-1.513.1851-2.75.2271l-2.583.1509c-.2493.0489-.5021.0786-.756.089-2.152.065-3.217 4.816-1.613 7.195 1.415 2.1 6.417 3.3781 7.973 2.0371.149-.128.343-.2111.432-.1851.192.058 1.731-.912 2.336-1.472.234-.218.382-.396.328-.396s.084-.398.307-.886c.421-.919.735-2.6349.637-3.4779-.225-1.936-2.649-3.7821-4.311-3.2821m-4.25.74c0 .142-.064.22-.143.171s-.106.099-.063.328c.058.301-.043.529-.368.83s-.42.513-.342.788c.086.305.07.327-.088.123s-.177-.185-.109.125c.053.241.018.336-.098.264s-.139-.0069-.069.1751.044.2459-.066.1779c-.105-.065-.155.0151-.123.1961.042.247-.058.306-.531.308l-.583.0039-.011-1.032c-.005-.568.036-1.004.092-.97s.197-.09.314-.277c.171-.274.172-.314.001-.209-.117.072-.04-.11.17-.405.286-.402.472-.514.741-.448.198.048.257.042.132-.014-.192-.086-.192-.1249 0-.2459.393-.249 1.144-.1761 1.144.1109m17.723 16.406c0 .688.029.969.065.625.0373-.4158.0373-.8341 0-1.25-.036-.343-.065-.062-.065.625m-31.351 2.667c0 .321.034.452.076.292.0411-.1925.0411-.3914 0-.584-.042-.16-.076-.029-.076.292m52.5 5.167c0 .32.034.452.076.291s.042-.423 0-.583-.076-.029-.076.292m-21.163 1.083c.002.367.036.497.076.29s.038-.508-.004-.667-.074.01-.072.377m-7.334.698c.16.042.423.042.583 0s.029-.0759-.291-.0759-.452.0339-.292.0759m-22.5 2.676h3.583c.986-.029.179-.053-1.791-.053zm11.509 0h3.5c.935-.029.124-.054-1.801-.053zm16.408.001h4.416c1.215-.029.221-.052-2.208-.052zm-47.11398 9.657c-.006.201.064.411.155.468.197.122.197-.041 0-.5-.138-.321-.143-.32-.155.032m33.19698 13.833c.16.042.423.042.583 0s.029-.0759-.291-.0759-.452.0339-.292.0759"
        clip-rule="evenodd" />
    <path fill="#fae3be" fill-rule="evenodd"
        d="M23.1008 25.8111c-.867.071-1.449.349-1.765.844-.156.243-.2259.39-.1579.327.14-.129-.434 4.2369.1579 4.2369-.5919 0-.796-2.4219-.3731-1.4019-.093 1.956.1792 3.19.1162 2.021-.211-3.943-.255-3.898-.242.251l.0139 4.493 1.8341.391c2.313.493 8.464.704 11.25.386 8.448-.965 13.894-3.999 16.786-9.354.512-.948.779-.738.857.675.064 1.149.2729 1.116.3249-.051.054-1.214-.2689-2.144-.8839-2.547-.461-.302-10.4441-.496-13.2281-.256-.754.064-1.4079.08-1.4539.034-.087-.087-12.2201-.132-13.2361-.049"
        clip-rule="evenodd" />
    <path fill="#fae3be"
        d="M16.3799 42.5141c.274.11-1.108.562-1.208.958s-.6065 11.6256-.6065 11.6256c1.01.921 7.3425 4.2974 10.4155 5.0004 12.802 2.928 27.2985-3.8644 33.5845-15.0004v-1.5l-1-1-2-.2406H36.4028z" />
    <path fill="#ecc291" fill-rule="evenodd"
        d="M50.7474 27.6762c-2.892 5.355-8.338 8.389-16.786 9.354-2.837.324-8.942.108-11.298-.399l-1.881-.405.047 1.438.048 1.437 15.524.043 15.524.042.069-.709c.159-1.652.037-8.924-.154-9.154-.106-.128-.212-.568-.236-.978-.079-1.407-.346-1.615-.857-.669m7.845 18.633-.035 1.959-.054-1.709c-.062-1.953-.154-2.044-.838-.833-6.286 11.136-19.856 16.971-32.658 14.043-3.073-.703-6.796-2.183-7.806-3.104-.189-.172-.714-.435-1.167-.585s-1.047-.469-1.32-.709-.16-.062.25.397c7.728 8.626 20.171 11.81 31.308 8.009 2.269-.775 6.857-3.349 6.558-3.681-.066-.072-.031-.081.077-.019.351.201 4.641-3.616 4.437-3.947-.056-.09-.021-.114.077-.054s.776-.587.776-.587l.597-.698v-5.22c0-5.078-.131-7.198-.202-3.262"
        clip-rule="evenodd" />
</svg>